<svg width="40" height="40" viewBox="0 0 211 211" fill="none" xmlns="http://www.w3.org/2000/svg">
<path d="M173.11 137.692C174.037 137.714 174.695 137.305 175.085 136.464C182.184 121.201 184.674 105.229 182.556 88.5496C178.572 57.1928 155.996 30.8464 126.677 20.9361C82.1418 5.88264 34.1529 30.592 20.128 75.3985C12.2568 100.55 15.7584 124.29 30.6329 146.618C49.3694 174.734 80.9943 187.608 114.175 182.421C119.111 181.647 123.797 180.297 128.233 178.373C128.7 178.172 129.218 178.119 129.717 178.222C130.216 178.325 130.672 178.578 131.025 178.948L142.776 191.336C142.886 191.453 142.968 191.593 143.017 191.745C143.066 191.898 143.08 192.059 143.059 192.217C143.038 192.375 142.982 192.526 142.894 192.659C142.807 192.791 142.692 192.903 142.556 192.984C134.975 197.486 125.794 199.687 117.187 201.102C94.6108 204.841 73.3878 201.242 53.5184 190.307C26.3184 175.342 6.23564 149.471 1.30323 118.203C-6.84022 66.7049 23.8908 17.9387 73.6232 3.759C100.9 -4.01661 131.312 0.462932 155.036 15.4169C164.187 21.1831 172.889 29.3385 181.143 39.8829C205.993 71.6379 209.204 115.405 189.386 150.544C189.137 150.99 189.006 151.493 189.006 152.004C189.006 152.516 189.137 153.018 189.386 153.464C190.129 154.784 191.174 156.097 192.52 157.402C197.478 162.202 202.447 166.988 207.427 171.759C208.347 172.643 209.336 173.842 210.396 175.353C210.616 175.663 210.602 175.962 210.352 176.249C206.489 180.629 202.252 184.622 197.64 188.228C197.338 188.464 197.04 188.464 196.746 188.228C192.884 185.168 188.856 181.477 184.663 177.156C171.289 163.367 157.739 149.759 144.012 136.331C143.085 135.424 142.096 134.396 141.044 133.246C140.264 132.39 140.286 131.553 141.11 130.735L153.27 118.701C153.353 118.617 153.452 118.551 153.561 118.507C153.67 118.463 153.786 118.441 153.904 118.443C154.021 118.445 154.137 118.471 154.244 118.519C154.352 118.567 154.448 118.637 154.528 118.723C159.935 124.541 165.423 130.425 170.991 136.376C171.793 137.238 172.5 137.677 173.11 137.692Z" fill="#023436"/>
<path d="M29.1432 87.9966C32.5198 64.9131 48.5639 45.2363 68.6688 35.2928C87.637 25.9023 111.946 25.8913 130.936 35.2264C160.089 49.5499 176.641 81.692 170.429 113.989C170.054 115.958 169.502 117.65 168.774 119.066C168.74 119.131 168.693 119.188 168.635 119.233C168.577 119.278 168.51 119.31 168.439 119.327C168.368 119.344 168.294 119.345 168.222 119.331C168.15 119.316 168.082 119.286 168.023 119.243C163.462 115.799 160.06 112.824 157.816 110.317C157.287 109.72 157.051 108.639 157.11 107.076C157.382 100.454 156.934 94.2827 155.764 88.5606C152.123 70.5872 136.939 54.5493 120.696 48.5323C100.514 41.0553 80.895 45.3911 64.3874 58.5753C41.0826 77.1793 38.8867 113.325 57.0605 136.177C70.4453 153 91.2674 160.2 112.52 156.119C120.112 154.659 125.364 146.319 131.19 141.397C132.014 140.704 132.786 140.756 133.507 141.552C150.291 160.001 168.608 177.289 186.263 194.908C187.036 195.675 187.62 196.361 188.018 196.966C188.156 197.183 188.217 197.44 188.191 197.696C188.165 197.951 188.053 198.189 187.874 198.37L176.531 209.929C175.957 210.519 175.313 210.603 174.6 210.183C173.923 209.792 173.147 209.095 172.272 208.093C162.969 197.497 151.858 187.719 141.838 177.167C138.793 173.949 135.118 170.84 131.885 167.478C130.572 166.118 129.425 165.93 127.747 166.626C110.004 174.037 90.7929 174.347 73.1488 166.715C41.3805 152.967 24.1005 122.472 29.1432 87.9966Z" fill="#00BFB3"/>
</svg>
